<?xml version="1.0" encoding="UTF-8"?>
<svg width="140px" height="105px" viewBox="0 0 140 105" version="1.1" xmlns="http://www.w3.org/2000/svg" xmlns:xlink="http://www.w3.org/1999/xlink">
    <g id="Symbols" stroke="none" stroke-width="1" fill="none" fill-rule="evenodd">
        <g id="Icon/Step/Delivery" transform="translate(0.000000, -17.000000)" fill="#152E62">
            <g id="Fill-1">
                <path d="M30.4175426,106.192362 C29.4160243,106.192362 28.6516001,105.348633 28.6516001,104.367554 C28.6516001,103.366036 29.4160243,102.541929 30.4175426,102.541929 C31.437865,102.541929 32.1834852,103.366036 32.1834852,104.367554 C32.1834852,105.348633 31.437865,106.192362 30.4175426,106.192362 L30.4175426,106.192362 Z M30.4175426,98.323289 C28.768512,98.323289 27.2584676,99.0100444 26.178463,100.108853 C25.0992759,101.18804 24.432142,102.69972 24.432142,104.367554 C24.432142,106.015767 25.0992759,107.526629 26.178463,108.606634 C27.2772717,109.705443 28.768512,110.392198 30.4175426,110.392198 C32.0853772,110.392198 33.5766176,109.705443 34.6566223,108.606634 C35.7358094,107.526629 36.4029432,106.015767 36.4029432,104.367554 C36.4029432,102.69972 35.7358094,101.18804 34.6566223,100.108853 C33.5578136,99.0100444 32.0853772,98.323289 30.4175426,98.323289 L30.4175426,98.323289 Z M100.397921,106.368956 C99.3775987,106.368956 98.6123569,105.544849 98.6123569,104.544149 C98.6123569,103.543448 99.3775987,102.718524 100.397921,102.718524 C101.398622,102.718524 102.164681,103.543448 102.164681,104.544149 C102.164681,105.544849 101.398622,106.368956 100.397921,106.368956 L100.397921,106.368956 Z M100.397921,98.4998832 C97.0810558,98.4998832 94.4125204,101.246905 94.4125204,104.544149 C94.4125204,107.840575 97.0810558,110.588414 100.397921,110.588414 C103.713969,110.588414 106.383322,107.840575 106.383322,104.544149 C106.383322,101.246905 103.713969,98.4998832 100.397921,98.4998832 L100.397921,98.4998832 Z M135.780542,103.267928 C135.780542,103.366036 135.682434,103.464961 135.585144,103.464961 L117.000234,103.464961 C116.882504,101.384256 116.372343,99.3828545 115.56704,97.5768512 L135.585144,97.5768512 C135.702056,97.5768512 135.780542,97.6757767 135.780542,97.7935062 L135.780542,103.267928 Z M112.172506,92.6322121 C109.150783,89.5704275 104.990189,87.6671338 100.397921,87.6671338 L100.378299,87.6671338 C96.8455968,87.6671338 93.5491708,88.7855641 90.8610138,90.7092969 L90.8610138,48.9284046 L94.2751694,48.9284046 L94.2751694,64.9616912 C94.5694931,67.9842327 96.9437047,70.18185 99.8485167,70.6723896 L127.852605,70.6723896 C129.40271,71.7908199 131.267578,72.9877365 132.542981,74.3612474 C133.229736,75.1264891 133.739897,75.9121701 133.739897,76.7558982 L133.739897,80.1120065 L128.715954,80.1120065 C128.146928,80.1120065 127.617146,80.3474655 127.224714,80.7202756 C126.39979,81.5443822 126.39979,82.8786498 127.224714,83.7027564 C127.617146,84.0755665 128.146928,84.3110255 128.715954,84.3110255 L133.739897,84.3110255 L133.739897,93.3582107 L112.83964,93.3582107 C112.643424,93.1031301 112.407965,92.8676711 112.172506,92.6322121 L112.172506,92.6322121 Z M109.190026,113.492408 C106.932726,115.788951 103.832516,117.201705 100.397921,117.201705 C96.9437047,117.201705 93.8434945,115.76933 91.606634,113.492408 C89.3305302,111.216305 87.9562018,108.056412 87.9562018,104.544149 C87.9562018,101.050689 89.3305302,97.8719925 91.606634,95.5754497 C93.8434945,93.2993459 96.9437047,91.8857744 100.397921,91.8857744 C103.832516,91.8857744 106.932726,93.2993459 109.190026,95.5754497 C111.446508,97.8719925 112.83964,101.031068 112.83964,104.544149 C112.83964,108.03679 111.446508,111.216305 109.190026,113.492408 L109.190026,113.492408 Z M98.4946274,48.9284046 L111.289535,48.9284046 C112.604181,48.9284046 113.075917,49.8702406 113.389045,50.3804018 L123.279958,66.4725531 L100.201705,66.4725531 C99.3775987,66.1586078 98.7104648,65.7073114 98.4946274,64.8047185 L98.4946274,48.9284046 Z M83.7768045,103.483765 L47.0582808,103.483765 C46.9601729,101.384256 46.4500117,99.4024761 45.6651483,97.5768512 L85.2279841,97.5768512 C84.4038776,99.4024761 83.8937164,101.384256 83.7768045,103.483765 L83.7768045,103.483765 Z M39.2088297,113.296192 C36.9727867,115.592735 33.8717589,117.005489 30.4175426,117.005489 C26.9837655,117.005489 23.8827377,115.573114 21.625438,113.296192 C19.3689559,111.020089 17.9750058,107.861014 17.9750058,104.347933 C17.9750058,100.854473 19.3689559,96.9685821 21.625438,94.6728568 C23.8827377,92.3959355 26.9837655,91.6903761 30.4175426,91.6903761 C33.8717589,91.6903761 36.9727867,93.1031301 39.2088297,95.3792338 C41.4661294,97.6757767 42.8592619,100.834852 42.8592619,104.347933 C42.8592619,107.840575 41.4661294,111.020089 39.2088297,113.296192 L39.2088297,113.296192 Z M13.7956085,103.464961 L10.9889045,103.464961 C10.8907965,103.464961 10.7926886,103.366036 10.7926886,103.267928 L10.7926886,97.7738846 C10.7926886,97.6561551 10.8907965,97.5768512 10.9889045,97.5768512 L15.1699369,97.5768512 C14.3850736,99.4024761 13.913338,101.364634 13.7956085,103.464961 L13.7956085,103.464961 Z M138.704158,94.6336136 L138.685354,94.6336136 C138.469516,94.3981546 138.214436,94.1823172 137.939734,94.0253445 L137.939734,76.716655 C137.939734,74.616328 136.978276,72.9100677 135.624387,71.457253 C133.543681,69.240014 129.991357,67.0023359 127.459355,65.1775286 L116.960173,48.1435412 C115.901425,46.3972203 114.370941,44.6893249 111.289535,44.6893249 L90.8610138,44.6893249 L90.8610138,17 L6.75064237,17 L6.75064237,47.2801915 C6.75064237,48.437865 7.69247839,49.379701 8.87059098,49.379701 C10.0282644,49.379701 10.9701004,48.437865 10.9701004,47.2801915 L10.9701004,21.2186405 L86.6415557,21.2186405 L86.6415557,93.3385891 L43.0366737,93.3385891 C42.7611539,93.0246438 42.4864518,92.7106984 42.192128,92.4163747 C39.1695865,89.35459 35.0098108,87.470918 30.4175426,87.470918 C25.8252745,87.470918 21.6646811,89.35459 18.6429573,92.4163747 C18.3478159,92.73032 18.0731138,93.0246438 17.7984116,93.3385891 L10.9889045,93.3385891 L10.9889045,74.9507125 L8.22307872,74.9507125 C7.73172156,74.9507125 7.24118197,74.8714085 6.77026396,74.7152534 L6.77026396,104.485284 C7.33847232,106.349334 9.06598925,107.66398 11.0093436,107.66398 L14.1095538,107.66398 C14.7374445,110.980846 16.366036,113.943705 18.6429573,116.240248 C21.6646811,119.301215 25.8252745,121.205326 30.4175426,121.205326 C35.0098108,121.205326 39.1892081,119.301215 42.2117496,116.240248 C44.4878533,113.943705 46.0976407,110.980846 46.745153,107.66398 L84.0310675,107.66398 C84.6597758,111.03971 86.2883672,114.081056 88.6037141,116.416842 C91.625438,119.477809 95.8056529,121.38192 100.397921,121.38192 C104.990189,121.38192 109.150783,119.477809 112.172506,116.416842 C114.488671,114.081056 116.116445,111.03971 116.745153,107.66398 L135.585144,107.66398 C138.017402,107.66398 140,105.6822 140,103.248306 L140,97.754263 C140,96.5565288 139.510278,95.4380986 138.704158,94.6336136 L138.704158,94.6336136 Z M30.731488,52.2060266 L2.09950946,52.2060266 C0.941018454,52.2060266 0,53.1478626 0,54.3251577 C0,55.4828311 0.941018454,56.4246671 2.09950946,56.4246671 L30.731488,56.4246671 C31.8891614,56.4246671 32.8309974,55.4828311 32.8309974,54.3251577 C32.8309974,53.1478626 31.8891614,52.2060266 30.731488,52.2060266 L30.731488,52.2060266 Z M12.519388,67.9245503 L8.22307872,67.9245503 C7.04496613,67.9245503 6.10313011,68.8672039 6.10313011,70.0248774 C6.10313011,71.2021724 7.04496613,72.1440084 8.22307872,72.1440084 L12.519388,72.1440084 C13.677879,72.1440084 14.619715,71.2021724 14.619715,70.0248774 C14.619715,68.8672039 13.677879,67.9245503 12.519388,67.9245503 L12.519388,67.9245503 Z M26.0026863,60.1143424 L4.39605232,60.1143424 C3.23756132,60.1143424 2.2957253,61.0561785 2.2957253,62.2138519 C2.2957253,63.3919645 3.23756132,64.3338005 4.39605232,64.3338005 L26.0026863,64.3338005 C27.1603597,64.3338005 28.1021957,63.3919645 28.1021957,62.2138519 C28.1021957,61.0561785 27.1603597,60.1143424 26.0026863,60.1143424 L26.0026863,60.1143424 Z M47.4122868,52.2256482 L36.3637001,52.2256482 C35.186405,52.2256482 34.2641906,53.1674842 34.2641906,54.3251577 C34.2641906,55.5032703 35.186405,56.4442887 36.3637001,56.4442887 L47.4122868,56.4442887 C48.5903994,56.4442887 49.5117963,55.5032703 49.5117963,54.3251577 C49.5117963,53.1674842 48.5903994,52.2256482 47.4122868,52.2256482 L47.4122868,52.2256482 Z M100.397921,106.368956 C99.3775987,106.368956 98.6123569,105.544849 98.6123569,104.544149 C98.6123569,103.543448 99.3775987,102.718524 100.397921,102.718524 C101.398622,102.718524 102.164681,103.543448 102.164681,104.544149 C102.164681,105.544849 101.398622,106.368956 100.397921,106.368956 L100.397921,106.368956 Z M100.397921,98.4998832 C97.0810558,98.4998832 94.4125204,101.246905 94.4125204,104.544149 C94.4125204,107.840575 97.0810558,110.588414 100.397921,110.588414 C103.713969,110.588414 106.383322,107.840575 106.383322,104.544149 C106.383322,101.246905 103.713969,98.4998832 100.397921,98.4998832 L100.397921,98.4998832 Z M100.397921,106.368956 C99.3775987,106.368956 98.6123569,105.544849 98.6123569,104.544149 C98.6123569,103.543448 99.3775987,102.718524 100.397921,102.718524 C101.398622,102.718524 102.164681,103.543448 102.164681,104.544149 C102.164681,105.544849 101.398622,106.368956 100.397921,106.368956 L100.397921,106.368956 Z M100.397921,98.4998832 C97.0810558,98.4998832 94.4125204,101.246905 94.4125204,104.544149 C94.4125204,107.840575 97.0810558,110.588414 100.397921,110.588414 C103.713969,110.588414 106.383322,107.840575 106.383322,104.544149 C106.383322,101.246905 103.713969,98.4998832 100.397921,98.4998832 L100.397921,98.4998832 Z M30.4175426,106.192362 C29.4160243,106.192362 28.6516001,105.348633 28.6516001,104.367554 C28.6516001,103.366036 29.4160243,102.541929 30.4175426,102.541929 C31.437865,102.541929 32.1834852,103.366036 32.1834852,104.367554 C32.1834852,105.348633 31.437865,106.192362 30.4175426,106.192362 L30.4175426,106.192362 Z M34.6566223,100.108853 C33.5578136,99.0100444 32.0853772,98.323289 30.4175426,98.323289 C28.768512,98.323289 27.2584676,99.0100444 26.178463,100.108853 C25.0992759,101.18804 24.432142,102.69972 24.432142,104.367554 C24.432142,106.015767 25.0992759,107.526629 26.178463,108.606634 C27.2772717,109.705443 28.768512,110.392198 30.4175426,110.392198 C32.0853772,110.392198 33.5766176,109.705443 34.6566223,108.606634 C35.7358094,107.526629 36.4029432,106.015767 36.4029432,104.367554 C36.4029432,102.69972 35.7358094,101.18804 34.6566223,100.108853 L34.6566223,100.108853 Z M30.4175426,106.192362 C29.4160243,106.192362 28.6516001,105.348633 28.6516001,104.367554 C28.6516001,103.366036 29.4160243,102.541929 30.4175426,102.541929 C31.437865,102.541929 32.1834852,103.366036 32.1834852,104.367554 C32.1834852,105.348633 31.437865,106.192362 30.4175426,106.192362 L30.4175426,106.192362 Z M34.6566223,100.108853 C33.5578136,99.0100444 32.0853772,98.323289 30.4175426,98.323289 C28.768512,98.323289 27.2584676,99.0100444 26.178463,100.108853 C25.0992759,101.18804 24.432142,102.69972 24.432142,104.367554 C24.432142,106.015767 25.0992759,107.526629 26.178463,108.606634 C27.2772717,109.705443 28.768512,110.392198 30.4175426,110.392198 C32.0853772,110.392198 33.5766176,109.705443 34.6566223,108.606634 C35.7358094,107.526629 36.4029432,106.015767 36.4029432,104.367554 C36.4029432,102.69972 35.7358094,101.18804 34.6566223,100.108853 L34.6566223,100.108853 Z"></path>
            </g>
        </g>
    </g>
</svg>