<svg xmlns="http://www.w3.org/2000/svg" width="139.09" height="76.089" viewBox="0 0 139.09 76.089">
  <g id="Group_97" data-name="Group 97" transform="translate(0 -2771)">
    <g id="Symbols" transform="translate(0 2788.291)">
      <g id="Icon_Step_Layout" data-name="Icon/Step/Layout" transform="translate(0 -81)">
        <g id="Icon_Step_Size" data-name="Icon/Step/Size">
          <g id="Group-4" transform="translate(0 64)">
            <path id="Fill-1" d="M4.54,71.259H71.259V22.249H4.54Zm64.687-53.55H6.571A6.56,6.56,0,0,0,0,24.28V69.227A6.56,6.56,0,0,0,6.571,75.8H69.227A6.56,6.56,0,0,0,75.8,69.227V24.28a6.56,6.56,0,0,0-6.571-6.571Z" fill="#152e62" fill-rule="evenodd"/>
          </g>
        </g>
      </g>
    </g>
    <g id="Symbols-2" data-name="Symbols" transform="translate(80.533 2771)">
      <g id="Icon_Step_Layout-2" data-name="Icon/Step/Layout" transform="translate(-81 -64)">
        <g id="Icon_Step_Size-2" data-name="Icon/Step/Size">
          <g id="Group-4-2" data-name="Group-4" transform="translate(0 64)">
            <path id="Fill-3" d="M86.007,71.259h49.01V4.54H86.007Zm53.55-2.032V6.571A6.562,6.562,0,0,0,132.986,0H88.038a6.562,6.562,0,0,0-6.571,6.571V69.227A6.561,6.561,0,0,0,88.038,75.8h44.948a6.561,6.561,0,0,0,6.571-6.571Z" fill="#152e62" fill-rule="evenodd"/>
          </g>
        </g>
      </g>
    </g>
  </g>
</svg>
