<?xml version="1.0" encoding="UTF-8"?>
<svg width="86px" height="140px" viewBox="0 0 86 140" version="1.1" xmlns="http://www.w3.org/2000/svg" xmlns:xlink="http://www.w3.org/1999/xlink">
    <g id="Symbols" stroke="none" stroke-width="1" fill="none" fill-rule="evenodd">
        <g id="Icon/Step/Payment" transform="translate(-27.000000, 0.000000)" fill="#152E62">
            <g id="Fill-1">
                <path d="M88.6442826,23.2932821 L74.7963548,9.44535437 C74.6202518,9.26833423 74.4001232,9.11516136 74.1579816,9.00417982 C74.091943,8.98216696 74.0259044,8.96107129 73.937853,8.93905843 C73.76175,8.87301982 73.5636342,8.82807689 73.3875313,8.82807689 C73.3435055,8.82807689 73.2994798,8.80698122 73.2334412,8.80698122 L31.4025734,8.80698122 L31.4025734,4.40349061 L88.6442826,4.40349061 L88.6442826,23.2932821 Z M88.6442826,80.5349913 L84.2407919,76.1315007 L84.2407919,30.8225999 L88.6442826,30.8225999 L88.6442826,80.5349913 Z M75.4347279,26.4191093 L75.4347279,16.3142861 L85.5404683,26.4191093 L75.4347279,26.4191093 Z M79.8373013,54.6882166 C74.7743419,49.1400569 67.5532043,46.0573383 60.0229694,46.2334412 C52.5156645,46.0573383 45.2945269,49.1400569 40.2086374,54.6882166 L40.2086374,30.6024712 C44.5460894,29.6999437 47.9149753,26.331975 48.79549,22.0156187 L71.0312373,22.0156187 L71.0312373,28.6213132 C71.0312373,29.8320209 72.0218163,30.8225999 73.2334412,30.8225999 L79.8373013,30.8225999 L79.8373013,54.6882166 Z M78.8476395,70.737431 L78.0982848,69.9889936 C74.2020074,66.0927161 67.8833973,66.0927161 63.9862026,69.9889936 C60.9924527,72.9827435 60.2440153,77.5183113 62.0710832,81.3274545 C61.3886843,81.3934931 60.7062855,81.4595317 60.0229694,81.4595317 C49.1036701,81.4595317 40.2086374,74.5465742 40.2086374,66.0477732 C40.2086374,57.5498893 49.1036701,50.6369318 60.0229694,50.6369318 C70.9661159,50.6369318 79.8373013,57.5498893 79.8373013,66.0477732 C79.8162057,67.6556297 79.4860127,69.262569 78.8476395,70.737431 L78.8476395,70.737431 Z M81.2030163,101.339902 C76.3152426,101.714121 72.2648751,105.281123 71.2522832,110.079928 L48.79549,110.079928 C47.9149753,105.765406 44.5460894,102.374507 40.2086374,101.493992 L40.2086374,77.408247 C45.2945269,82.9343938 52.5156645,86.0161952 60.0229694,85.8621051 C61.7629031,85.8400922 63.5019196,85.6639893 65.2189232,85.3567264 L81.2030163,101.339902 Z M77.8790734,118.886909 L31.4025734,118.886909 L31.4025734,13.2095546 L71.0312373,13.2095546 L71.0312373,17.6130452 L46.8143319,17.6130452 C45.6027071,17.6130452 44.612128,18.6036243 44.612128,19.8143319 C44.612128,23.4473722 41.6624039,26.4191093 38.0073507,26.4191093 C36.796643,26.4191093 35.806064,27.4096883 35.806064,28.6213132 L35.806064,103.47515 C35.806064,104.685858 36.796643,105.676437 38.0073507,105.676437 C41.6624039,105.676437 44.612128,108.627078 44.612128,112.281214 C44.612128,113.492839 45.6027071,114.483418 46.8143319,114.483418 L73.2334412,114.483418 C74.4661618,114.483418 75.4347279,113.492839 75.4347279,112.281214 C75.4567408,109.79376 76.8435514,107.548448 79.0457553,106.425792 C77.5039374,110.388108 77.1077058,114.703547 77.8790734,118.886909 L77.8790734,118.886909 Z M106.873688,72.2122931 L93.0477732,56.4052202 L93.0477732,2.2012867 C93.0477732,0.99149622 92.079207,0 90.8455693,0 L29.2012867,0 C27.990579,0 27,0.990579017 27,2.2012867 L27,121.088196 C27,122.298903 27.990579,123.289482 29.2012867,123.289482 L79.1778325,123.289482 C79.9042571,125.117467 80.8728233,126.856484 82.0395052,128.44141 L82.0395052,137.797796 C82.0395052,139.009421 83.0300843,140 84.2407919,140 C85.4735125,140 86.4429958,139.009421 86.4429958,137.797796 L86.4429958,127.692973 C86.4429958,127.157326 86.2439628,126.647362 85.910101,126.229117 C81.1782518,120.308573 80.5719808,112.093188 84.3508563,105.522347 L86.1595802,102.346991 C86.6484493,101.488489 86.5035312,100.408941 85.8046227,99.7109501 L67.0909341,80.9972615 C64.9547688,78.7950576 64.9987945,75.250986 67.2230113,73.1148207 C69.3802723,71.0235983 72.8151967,71.0235983 74.9944706,73.1148207 L96.547819,94.6690863 C97.4109069,95.531257 98.8096411,95.5285054 99.6690601,94.6635831 C100.523893,93.8023297 100.521142,92.4118503 99.6635569,91.5533484 L93.0477732,84.9375647 L93.0477732,63.098049 L103.570841,75.1189088 C106.719598,78.729019 108.458614,83.3526383 108.458614,88.1523605 L108.458614,137.797796 C108.458614,139.009421 109.449194,140 110.659901,140 C111.893539,140 112.862105,139.009421 112.862105,137.797796 L112.862105,88.1523605 C112.862105,82.2960207 110.74887,76.6157837 106.873688,72.2122931 L106.873688,72.2122931 Z"></path>
            </g>
        </g>
    </g>
</svg>