<?xml version="1.0" encoding="UTF-8"?>
<svg width="87px" height="140px" viewBox="0 0 87 140" version="1.1" xmlns="http://www.w3.org/2000/svg" xmlns:xlink="http://www.w3.org/1999/xlink">
    <g id="Symbols" stroke="none" stroke-width="1" fill="none" fill-rule="evenodd">
        <g id="Icon/Step/Theme" transform="translate(-26.000000, 0.000000)" fill="#152E62" stroke="#152E62">
            <g id="Combined-Shape">
                <path d="M91.4728503,37.6420599 C100.507461,37.6420599 107.85285,30.2773892 107.85285,21.2427784 C107.85285,12.2073293 100.507461,4.86194012 91.4728503,4.86194012 C82.4382395,4.86194012 75.0727305,12.2073293 75.0727305,21.2427784 C75.0727305,30.2773892 82.4382395,37.6420599 91.4728503,37.6420599 Z M91.4728503,0.837988024 C102.721473,0.837988024 111.876802,9.99415569 111.876802,21.2427784 C111.876802,32.4905629 102.721473,41.6668503 91.4728503,41.6668503 C80.2041078,41.6668503 71.0479401,32.4905629 71.0479401,21.2427784 C71.0479401,9.99415569 80.2041078,0.837988024 91.4728503,0.837988024 Z M102.942874,106.039102 C104.572575,99.5194611 103.647066,78.0684431 103.647066,77.8672455 C103.647066,74.3052096 100.990419,71.6896407 97.4694611,71.6896407 C94.0683832,71.6896407 91.311976,74.607006 91.311976,78.1891617 C91.311976,79.2957485 90.4057485,80.2011377 89.3,80.2011377 C88.1724551,80.2011377 87.2871856,79.2957485 87.2871856,78.1891617 L87.2871856,69.032994 C87.2871856,65.4516766 84.5106587,62.5334731 81.1095808,62.5334731 C77.8099401,62.5334731 75.1130539,65.2705988 74.9520958,68.7119162 L74.9520958,74.3253293 C74.9520958,75.4327545 74.0668263,76.3381437 72.9602395,76.3381437 L72.9392814,76.3381437 C71.8335329,76.3381437 70.9273054,75.4327545 70.9273054,74.3253293 L70.9273054,61.0848503 C70.9273054,57.6041317 68.271497,54.9877246 64.7497006,54.9877246 C61.3494611,54.9877246 58.5720958,57.9050898 58.5720958,61.4872455 L58.5720958,72.5950299 C58.5720958,73.7016168 57.6868263,74.607006 56.5601198,74.607006 C55.4535329,74.607006 54.5473054,73.7016168 54.5473054,72.5950299 L54.5473054,29.2511976 C54.5473054,25.6690419 51.7908982,22.7516766 48.3898204,22.7516766 C44.9895808,22.7516766 42.2130539,25.6690419 42.2130539,29.2511976 L42.2130539,87.6865269 C42.2130539,88.8140719 41.3269461,89.6993413 40.2002395,89.6993413 C39.0936527,89.6993413 38.1882635,88.8140719 38.1882635,87.6865269 L38.1882635,67.5038922 L37.6450299,67.5038922 C34.2439521,67.5038922 31.4875449,70.4220958 31.4875449,74.0034132 C31.4875449,74.2247305 31.3265868,94.6697605 32.1112575,102.456946 C32.4532934,105.797665 37.6651497,114.268922 41.2464671,119.400299 L96.3226347,119.400299 C98.3346108,115.919581 102.218563,108.916228 102.942874,106.039102 Z M42.4938922,135.438263 L95.1548503,135.438263 L95.1548503,123.42509 L42.4938922,123.42509 L42.4938922,135.438263 Z M31.0239521,37.641976 L38.1882635,37.641976 L38.1882635,29.2511976 C38.1882635,23.4558683 42.7755689,18.7268862 48.3898204,18.7268862 C54.0049102,18.7268862 58.5922156,23.4558683 58.5922156,29.2511976 L58.5922156,37.641976 L63.7839521,37.641976 L63.7839521,4.86269461 L31.0239521,4.86269461 L31.0239521,37.641976 Z M107.671856,77.7666467 C107.711257,78.5915569 108.617485,99.941976 106.846108,107.02497 C105.739521,111.350719 99.8637126,121.311677 99.1997605,122.438383 C99.1997605,122.438383 99.1997605,122.458503 99.1796407,122.458503 L99.1796407,137.45024 C99.1796407,138.556826 98.2742515,139.463054 97.1676647,139.463054 L40.4819162,139.463054 C39.3753293,139.463054 38.4699401,138.556826 38.4699401,137.45024 L38.4699401,122.438383 C37.0816766,120.486766 28.6699401,108.453473 28.1065868,102.859341 C27.3017964,94.8508383 27.4426347,74.8291617 27.4627545,73.9832934 C27.4627545,68.1879641 32.0307784,63.4791018 37.6450299,63.4791018 L38.1882635,63.4791018 L38.1882635,41.6667665 L29.0128144,41.6667665 C27.8852695,41.6667665 27,40.7613772 27,39.6539521 L27,2.84988024 C27,1.74329341 27.8852695,0.837904192 29.0128144,0.837904192 L65.7959281,0.837904192 C66.9234731,0.837904192 67.8087425,1.74329341 67.8087425,2.84988024 L67.8087425,39.6539521 C67.8087425,40.7613772 66.9234731,41.6667665 65.7959281,41.6667665 L58.5922156,41.6667665 L58.5922156,53.1165868 C60.3032335,51.7484431 62.4359281,50.9629341 64.7497006,50.9629341 C70.3237126,50.9629341 74.7307784,55.1889222 74.931976,60.6623353 C76.6622754,59.3143114 78.7958084,58.509521 81.1095808,58.509521 C86.7238323,58.509521 91.311976,63.2175449 91.311976,69.032994 L91.311976,69.818503 C93.0221557,68.470479 95.1548503,67.6656886 97.4694611,67.6656886 C103.184311,67.6656886 107.671856,72.0920359 107.671856,77.7666467 Z"></path>
            </g>
        </g>
    </g>
</svg>