<svg width="140px" height="140px" viewBox="0 0 140 140" xmlns="http://www.w3.org/2000/svg" xmlns:xlink="http://www.w3.org/1999/xlink">
    <g id="Symbols" stroke="none" stroke-width="1" fill="none" fill-rule="evenodd">
        <g id="Icon/Step/Design" fill="#152E62">
            <g id="Combined-Shape">
                <path d="M32.6666667,86.3329931 C33.9546733,86.3329931 34.9996598,87.3779796 34.9996598,88.6659862 L34.9996598,100.332896 C34.9996598,101.621875 33.9546733,102.665889 32.6666667,102.665889 C31.377688,102.665889 30.3336736,101.621875 30.3336736,100.332896 L30.3336736,88.6659862 C30.3336736,87.3779796 31.377688,86.3329931 32.6666667,86.3329931 Z M51.3326529,109.666229 L135.333042,109.666229 L135.309712,30.3327987 L130.642753,30.3327987 L130.642753,62.9995626 C130.642753,63.0228925 130.619424,63.0695524 130.619424,63.0928823 C130.619424,63.3728415 130.572764,63.6294707 130.456114,63.8860999 L130.456114,63.9094299 L123.456163,80.2423258 C123.222863,80.8032162 122.779595,81.2464849 122.243006,81.4797842 C121.05318,81.9697128 119.676714,81.4331243 119.186785,80.2423258 L112.186834,63.9094299 L112.186834,63.8860999 C112.069212,63.6294707 112.023524,63.3728415 112.023524,63.0928823 C112.023524,63.0695524 111.999222,63.0228925 111.999222,62.9995626 L111.999222,30.3327987 L20.9998542,30.3327987 L20.9998542,44.3336736 C20.9998542,45.6158477 19.9500073,46.6656946 18.6668611,46.6656946 L4.66695829,46.6656946 L4.66695829,109.666229 L13.9999028,109.666229 L13.9999028,93.3323613 C13.9999028,83.0195596 22.3529902,74.6664723 32.6667639,74.6664723 C42.9795655,74.6664723 51.3326529,83.0195596 51.3326529,93.3323613 L51.3326529,109.666229 Z M46.6666667,121.332167 L46.6666667,93.3323613 C46.6666667,85.609182 40.3899431,79.3324585 32.6667639,79.3324585 C24.9435846,79.3324585 18.6668611,85.609182 18.6668611,93.3323613 L18.6668611,121.332167 C18.6668611,129.056318 24.9435846,135.333042 32.6667639,135.333042 C40.3899431,135.333042 46.6666667,129.056318 46.6666667,121.332167 Z M16.3328959,33.622319 L7.95647857,41.9997084 L16.3328959,41.9997084 L16.3328959,33.622319 Z M4.66695829,30.3327987 L4.66695829,38.709216 L13.0433756,30.3327987 L4.66695829,30.3327987 Z M124.785969,65.3335277 L117.879337,65.3335277 L121.333139,73.4056839 L124.785969,65.3335277 Z M116.666181,60.6665695 L126.000097,60.6665695 L126.000097,13.9999028 L116.666181,13.9999028 L116.666181,60.6665695 Z M116.666181,9.3329445 L126.000097,9.3329445 L126.000097,4.66598621 L116.666181,4.66598621 L116.666181,9.3329445 Z M137.666035,25.6658404 C138.949181,25.6658404 140,26.7166594 140,27.9998056 L140,111.999222 C140,113.282369 138.949181,114.332215 137.666035,114.332215 L51.3326529,114.332215 L51.3326529,121.332167 C51.3326529,131.645941 42.9795655,139.999028 32.6667639,139.999028 C22.3529902,139.999028 13.9999028,131.645941 13.9999028,121.332167 L13.9999028,114.332215 L2.33396519,114.332215 C1.0498469,114.332215 0,113.282369 0,111.999222 L0,27.9998056 C0,26.7166594 1.0498469,25.6658404 2.33396519,25.6658404 L111.999222,25.6658404 L111.999222,2.33299311 C111.999222,1.0498469 113.049069,9.9475983e-14 114.333188,9.9475983e-14 L128.33309,9.9475983e-14 C129.616237,9.9475983e-14 130.666083,1.0498469 130.666083,2.33299311 L130.666083,25.6658404 L137.666035,25.6658404 Z M128.332993,100.332799 C129.621,100.332799 130.665986,101.377785 130.665986,102.665792 C130.665986,103.95477 129.621,104.999757 128.332993,104.999757 L123.666035,104.999757 C122.377056,104.999757 121.333042,103.95477 121.333042,102.665792 C121.333042,101.377785 122.377056,100.332799 123.666035,100.332799 L128.332993,100.332799 Z M114.332799,100.332799 C115.621777,100.332799 116.665792,101.377785 116.665792,102.665792 C116.665792,103.95477 115.621777,104.999757 114.332799,104.999757 L109.66584,104.999757 C108.377834,104.999757 107.332847,103.95477 107.332847,102.665792 C107.332847,101.377785 108.377834,100.332799 109.66584,100.332799 L114.332799,100.332799 Z M37.3337222,62.2639893 L59.3066289,62.2639893 L59.3066289,40.2901105 L37.3337222,40.2901105 L37.3337222,62.2639893 Z M61.639622,66.9299755 L34.999757,66.9299755 C33.7098062,66.9299755 32.6667639,65.8859611 32.6667639,64.5969824 L32.6667639,37.9561453 C32.6667639,36.6681387 33.7098062,35.6231522 34.999757,35.6231522 L61.639622,35.6231522 C62.9295728,35.6231522 63.9726151,36.6681387 63.9726151,37.9561453 L63.9726151,64.5969824 C63.9726151,65.8859611 62.9295728,66.9299755 61.639622,66.9299755 Z M75.9360093,62.2639893 L97.9089161,62.2639893 L97.9089161,40.2901105 L75.9360093,40.2901105 L75.9360093,62.2639893 Z M100.240937,66.9299755 L73.6020441,66.9299755 C72.3120934,66.9299755 71.269051,65.8859611 71.269051,64.5969824 L71.269051,37.9561453 C71.269051,36.6681387 72.3120934,35.6231522 73.6020441,35.6231522 L100.240937,35.6231522 C101.53186,35.6231522 102.574902,36.6681387 102.574902,37.9561453 L102.574902,64.5969824 C102.574902,65.8859611 101.53186,66.9299755 100.240937,66.9299755 Z M75.9360093,98.4496844 L97.9089161,98.4496844 L97.9089161,76.4758056 L75.9360093,76.4758056 L75.9360093,98.4496844 Z M100.240937,103.115671 L73.6020441,103.115671 C72.3120934,103.115671 71.269051,102.071656 71.269051,100.782678 L71.269051,74.1418404 C71.269051,72.8538338 72.3120934,71.8088473 73.6020441,71.8088473 L100.240937,71.8088473 C101.53186,71.8088473 102.574902,72.8538338 102.574902,74.1418404 L102.574902,100.782678 C102.574902,102.071656 101.53186,103.115671 100.240937,103.115671 Z"></path>
            </g>
        </g>
    </g>
</svg>