<svg id="Layer_1" xmlns="http://www.w3.org/2000/svg" xmlns:xlink="http://www.w3.org/1999/xlink" x="0px" y="0px"
	 viewBox="0 0 142 142" style="enable-background:new 0 0 142 142;" xml:space="preserve">
<style type="text/css">
	.st0{fill-rule:evenodd;clip-rule:evenodd;fill:#152E62;stroke:#152E62;}
</style>
<g transform="scale(0.7)
			  translate(30 70)">
	<g id="Symbols">
		<g transform="translate(1.000000, 1.000000)">
			<g id="Combined-Shape">
				<path class="st0" d="M12.9,125.3h49.4V14.6H12.9V125.3z M60.5,10.7c3.1,0,5.6,2.5,5.6,5.6v107.2c0,3.1-2.5,5.6-5.6,5.6H14.6
					c-3.1,0-5.6-2.5-5.6-5.6V16.3c0-3.1,2.5-5.6,5.6-5.6H60.5z"/>
			</g>
		</g>
	</g>
	<g id="Symbols_1_">
		<g transform="translate(1.000000, 1.000000)">
			<g id="Combined-Shape_1_">
				<path class="st0" d="M77.9,125.3h49.4V72.6H77.9V125.3z M125.5,68.7c3.1,0,5.6,2.5,5.6,5.6v49.2c0,3.1-2.5,5.6-5.6,5.6H79.6
					c-3.1,0-5.6-2.5-5.6-5.6V74.4c0-3.1,2.5-5.6,5.6-5.6H125.5z"/>
			</g>
		</g>
	</g>
</g>
</svg>
