<svg width="142px" height="142px" viewBox="0 0 142 142" xmlns="http://www.w3.org/2000/svg" xmlns:xlink="http://www.w3.org/1999/xlink">
    <g id="Symbols" stroke="none" stroke-width="1" fill="none" fill-rule="evenodd">
        <g id="Icon/Step/Size" transform="translate(1.000000, 1.000000)" fill="#152E62" stroke="#152E62">
            <g id="Combined-Shape">
                <path d="M14.1965992,126.624927 L97.5928934,126.624927 L97.5928934,40.9458926 L14.1965992,40.9458926 L14.1965992,126.624927 Z M95.8485352,37.0471084 C98.9711517,37.0471084 101.491678,39.566737 101.491678,42.6902508 L101.491678,124.879672 C101.491678,128.003185 98.9711517,130.522814 95.8485352,130.522814 L15.9409574,130.522814 C12.8174436,130.522814 10.2978151,128.003185 10.2978151,124.879672 L10.2978151,42.6902508 C10.2978151,39.566737 12.8174436,37.0471084 15.9409574,37.0471084 L95.8485352,37.0471084 Z M136.014716,125.637086 C136.778321,124.874377 138.012114,124.874377 138.77213,125.635291 C139.534838,126.396204 139.534838,127.630894 138.77213,128.393602 L127.738885,139.428642 C126.977074,140.190453 125.74059,140.190453 124.979676,139.428642 L113.943739,128.393602 C113.181928,127.630894 113.181928,126.396204 113.943739,125.635291 C114.706447,124.872583 115.94024,124.872583 116.702948,125.635291 L124.570506,133.503746 L124.570506,33.5683521 L116.86536,41.2743954 C116.103549,42.0353089 114.868859,42.0353089 114.106151,41.2743954 C113.345238,40.5116874 113.345238,39.2769976 114.106151,38.5160842 L125.141191,27.4810445 C125.904796,26.720131 127.138589,26.720131 127.900399,27.4810445 L138.936336,38.5160842 C139.69725,39.2769976 139.69725,40.5116874 138.936336,41.2743954 C138.173628,42.0353089 136.938041,42.0353089 136.178025,41.2743954 L128.473776,33.5701467 L128.473776,133.17982 L136.014716,125.637086 Z M114.633676,11.7732962 C115.396384,12.535107 115.396384,13.7706941 114.633676,14.5307102 L103.597739,25.5666472 C102.837723,26.3266634 101.603033,26.3266634 100.840325,25.5666472 C100.077617,24.8039392 100.077617,23.5692494 100.840325,22.808336 L108.706986,14.9398807 L6.66561981,14.9398807 L14.3635874,22.6405402 C15.1262955,23.4005563 15.1262955,24.6361434 14.3635874,25.3979541 C13.602674,26.1588676 12.3679842,26.1588676 11.6061734,25.3979541 L0.572031047,14.364709 C-0.190677016,13.6028983 -0.190677016,12.3673112 0.572031047,11.6063978 L11.6061734,0.571358069 C12.3679842,-0.19045269 13.602674,-0.19045269 14.3635874,0.571358069 C15.1262955,1.33227152 15.1262955,2.56696128 14.3635874,3.32966934 L6.65574947,11.0393019 L108.381264,11.0393019 L100.840325,3.49567051 C100.077617,2.73565436 100.077617,1.5000673 100.840325,0.738256539 C101.603033,-0.0244515232 102.837723,-0.0244515232 103.597739,0.738256539 L114.633676,11.7732962 Z"></path>
            </g>
        </g>
    </g>
</svg>